<svg width="129" height="36" viewBox="0 0 129 36" fill="none" xmlns="http://www.w3.org/2000/svg">
<path fill-rule="evenodd" clip-rule="evenodd" d="M112.722 34.839C113.994 35.4063 115.497 35.69 117.23 35.69C119.392 35.69 121.339 35.253 123.072 34.379C124.82 33.505 126.2 32.2783 127.212 30.699C128.224 29.1197 128.73 27.2567 128.73 25.11C128.73 23.2087 128.392 21.591 127.718 20.257C127.058 18.9077 126.184 17.7653 125.096 16.83C124.007 15.8793 122.803 15.0667 121.485 14.392C120.181 13.702 118.87 13.0733 117.552 12.506C116.248 11.9233 115.052 11.333 113.964 10.735C112.875 10.1217 111.993 9.43166 111.319 8.66499C110.659 7.88299 110.33 6.93233 110.33 5.813C110.33 4.23366 110.797 2.91499 111.733 1.85699C112.683 0.798995 114.094 0.269993 115.965 0.269993C117.743 0.269993 119.33 0.66866 120.726 1.46599C122.121 2.26333 123.309 3.421 124.291 4.939C125.287 6.457 126.092 8.274 126.706 10.39H126.913V0.0399933H126.752L122.612 2.70799C121.722 1.81866 120.695 1.15166 119.53 0.706995C118.38 0.262328 117.107 0.0399933 115.712 0.0399933C113.933 0.0399933 112.262 0.407994 110.698 1.14399C109.149 1.87999 107.892 2.93799 106.926 4.31799C105.975 5.68266 105.5 7.32333 105.5 9.24C105.5 11.1413 105.837 12.7513 106.512 14.07C107.186 15.3733 108.076 16.4773 109.18 17.382C110.284 18.2867 111.495 19.061 112.814 19.705C114.148 20.3337 115.474 20.924 116.793 21.476C118.127 22.028 119.346 22.6107 120.45 23.224C121.554 23.8373 122.435 24.5657 123.095 25.409C123.769 26.2523 124.107 27.3027 124.107 28.56C124.107 29.9093 123.823 31.1053 123.256 32.148C122.688 33.1907 121.876 34.011 120.818 34.609C119.76 35.1917 118.495 35.483 117.023 35.483C115.321 35.483 113.833 35.184 112.561 34.586C111.288 33.9727 110.176 33.1523 109.226 32.125C108.29 31.0823 107.501 29.917 106.857 28.629C106.213 27.341 105.668 26.0147 105.224 24.65H105.017V35.46H105.178L109.456 32.562C110.36 33.5127 111.449 34.2717 112.722 34.839ZM60.2557 0.661001L72.8827 35.46H74.8837L81.4422 18.3232L87.6717 35.46H88.9597L102.024 0.661001H106.256V0.5H97.0787V0.661001H101.817L91.8807 27.134L86.5909 12.32L90.9578 0.661001H94.9857V0.5H57.8899H56.5527H33.787H31.6699H23.483V0.661001H28.773V23.293L13.938 0.5H5.54299H5.42799H0.804993V0.661001H5.35899V34.839H0.804993V35H10.879V34.839H5.54299V0.672386L28.75 35.46H28.957V0.661001H31.6699H33.787H35.7869V34.839H31.6699V35H58.3729V24.65H58.1889C57.9589 26.5973 57.4223 28.3377 56.5789 29.871C55.7356 31.4043 54.5779 32.6157 53.1059 33.505C51.6339 34.3943 49.8476 34.839 47.7469 34.839H42.9399V17.244H44.5269C45.4009 17.244 46.2596 17.5047 47.1029 18.026C47.9463 18.532 48.6823 19.2143 49.3109 20.073C49.9396 20.9317 50.3689 21.8747 50.5989 22.902H50.7829V11.632H50.5989C50.3689 12.6593 49.9396 13.587 49.3109 14.415C48.6823 15.2277 47.9463 15.8717 47.1029 16.347C46.2596 16.8223 45.4009 17.06 44.5269 17.06H42.9399V0.661001H48.2069C50.0009 0.661001 51.5726 1.098 52.9219 1.972C54.2713 2.83067 55.3523 3.96533 56.1649 5.376C56.9776 6.77133 57.4989 8.28933 57.7289 9.93H57.8899V0.661001H60.2557ZM90.7193 0.661001H82.4277L86.4819 12.0148L90.7193 0.661001ZM81.3311 18.0177L75.0217 0.661001H68.3517L77.8507 27.134L81.3311 18.0177Z" fill="white"/>
</svg>
