<svg width="24" height="24" viewBox="0 0 24 24" fill="none" xmlns="http://www.w3.org/2000/svg">
<g clip-path="url(#clip0_89_69)">
<path d="M23.3034 13.6443C23.2228 13.609 23.1324 13.6032 23.048 13.6281C22.9636 13.653 22.8908 13.7069 22.8423 13.7803C21.9481 15.1071 20.7385 16.1912 19.322 16.9353C17.9055 17.6794 16.3265 18.0602 14.7266 18.0436C12.1428 18.0223 9.72661 17.0099 7.92295 15.1929C7.0202 14.2848 6.30934 13.2044 5.83267 12.016C5.35599 10.8275 5.12324 9.55531 5.14827 8.27508C5.1733 6.99484 5.45559 5.73272 5.97836 4.56381C6.50112 3.3949 7.25366 2.34308 8.19122 1.47095C8.25535 1.4112 8.29657 1.3309 8.30773 1.24397C8.31889 1.15703 8.29929 1.06893 8.25232 0.994921C8.20536 0.920914 8.13399 0.865664 8.05058 0.838742C7.96716 0.81182 7.87696 0.814921 7.79559 0.847508C5.64829 1.69914 3.80318 3.17081 2.49539 5.07498C0.96099 7.30949 0.262289 10.0129 0.521825 12.7111C0.781361 15.4092 1.98256 17.9299 3.91476 19.8309C6.10912 21.9904 9.0263 23.1797 12.1288 23.1797C14.8085 23.179 17.4073 22.2609 19.4928 20.5781C21.5334 18.9265 22.9539 16.6319 23.5223 14.0689C23.5418 13.9837 23.5304 13.8944 23.4904 13.8167C23.4503 13.739 23.3841 13.6779 23.3034 13.6443ZM19.1387 20.1412C17.1534 21.7429 14.6796 22.6167 12.1288 22.6172C9.1748 22.6172 6.39778 21.4853 4.30931 19.43C2.47135 17.6217 1.32869 15.224 1.08175 12.6575C0.834806 10.091 1.49934 7.51943 2.9588 5.39387C4.01686 3.8532 5.44788 2.6056 7.11839 1.76743C5.41952 3.69266 4.51618 6.1918 4.59146 8.75832C4.66673 11.3248 5.71499 13.7667 7.52377 15.5891C9.43256 17.5119 11.9889 18.5834 14.7219 18.606C14.7508 18.606 14.7794 18.6063 14.8082 18.6063C16.3218 18.6094 17.8171 18.2764 19.1864 17.6314C20.5556 16.9864 21.7645 16.0455 22.7259 14.8765C22.0717 16.9449 20.8244 18.7755 19.1387 20.141V20.1412Z" fill="white"/>
</g>
<defs>
<clipPath id="clip0_89_69">
<rect width="24" height="24" fill="white"/>
</clipPath>
</defs>
</svg>
