<svg width="24" height="24" viewBox="0 0 24 24" fill="none" xmlns="http://www.w3.org/2000/svg">
<g clip-path="url(#clip0_89_55)">
<path d="M12 4.53491C7.88377 4.53491 4.53493 7.88376 4.53493 12C4.53493 16.1162 7.88377 19.4651 12 19.4651C16.1162 19.4651 19.4651 16.1162 19.4651 12C19.4651 7.88376 16.1162 4.53491 12 4.53491ZM12 18.5276C8.40066 18.5276 5.47243 15.5993 5.47243 12C5.47243 8.40065 8.40066 5.47241 12 5.47241C15.5993 5.47241 18.5276 8.40065 18.5276 12C18.5276 15.5993 15.5993 18.5276 12 18.5276Z" fill="white"/>
<path d="M12 3.15436C12.1243 3.15436 12.2435 3.10497 12.3315 3.01707C12.4194 2.92916 12.4687 2.80993 12.4688 2.68561V0.46875C12.4688 0.34443 12.4194 0.225201 12.3315 0.137294C12.2435 0.049386 12.1243 0 12 0C11.8757 0 11.7565 0.049386 11.6685 0.137294C11.5806 0.225201 11.5312 0.34443 11.5312 0.46875V2.68561C11.5312 2.80993 11.5806 2.92916 11.6685 3.01707C11.7565 3.10497 11.8757 3.15436 12 3.15436Z" fill="white"/>
<path d="M12 20.8456C11.8757 20.8456 11.7565 20.895 11.6685 20.9829C11.5806 21.0708 11.5312 21.1901 11.5312 21.3144V23.5313C11.5312 23.6556 11.5806 23.7748 11.6685 23.8627C11.7565 23.9506 11.8757 24 12 24C12.1243 24 12.2435 23.9506 12.3315 23.8627C12.4194 23.7748 12.4687 23.6556 12.4688 23.5313V21.3144C12.4688 21.1901 12.4194 21.0708 12.3315 20.9829C12.2435 20.895 12.1243 20.8456 12 20.8456Z" fill="white"/>
<path d="M6.93684 4.16788C6.999 4.27555 7.10139 4.35412 7.22147 4.38629C7.34156 4.41847 7.46951 4.40163 7.57718 4.33947C7.68485 4.27731 7.76341 4.17492 7.79559 4.05484C7.82777 3.93475 7.81092 3.8068 7.74876 3.69913L6.64031 1.77927C6.60976 1.72553 6.56887 1.67837 6.52002 1.64049C6.47116 1.60262 6.41529 1.57478 6.35564 1.55858C6.29598 1.54238 6.2337 1.53815 6.1724 1.54612C6.1111 1.55408 6.05197 1.5741 5.99844 1.60501C5.9449 1.63592 5.89801 1.67711 5.86046 1.72622C5.82291 1.77533 5.79544 1.83138 5.77964 1.89114C5.76384 1.95091 5.76002 2.01321 5.76839 2.07446C5.77676 2.13571 5.79717 2.19469 5.82844 2.24802L6.93684 4.16788Z" fill="white"/>
<path d="M17.0632 19.8321C17.001 19.7244 16.8986 19.6459 16.7785 19.6137C16.6584 19.5815 16.5305 19.5984 16.4228 19.6605C16.3151 19.7227 16.2366 19.8251 16.2044 19.9451C16.1722 20.0652 16.1891 20.1932 16.2512 20.3009L17.3597 22.2207C17.3902 22.2745 17.4311 22.3216 17.48 22.3595C17.5288 22.3974 17.5847 22.4252 17.6444 22.4414C17.704 22.4576 17.7663 22.4618 17.8276 22.4539C17.8889 22.4459 17.948 22.4259 18.0016 22.395C18.0551 22.3641 18.102 22.3229 18.1395 22.2738C18.1771 22.2247 18.2046 22.1686 18.2204 22.1088C18.2362 22.0491 18.24 21.9868 18.2316 21.9255C18.2232 21.8643 18.2028 21.8053 18.1716 21.752L17.0632 19.8321Z" fill="white"/>
<path d="M4.16788 6.93684L2.24802 5.82844C2.19469 5.79717 2.13571 5.77676 2.07446 5.76839C2.01321 5.76002 1.95091 5.76384 1.89114 5.77964C1.83138 5.79544 1.77533 5.82291 1.72622 5.86046C1.67711 5.89801 1.63592 5.9449 1.60501 5.99844C1.5741 6.05197 1.55408 6.1111 1.54612 6.1724C1.53815 6.2337 1.54238 6.29598 1.55858 6.35564C1.57478 6.41529 1.60262 6.47116 1.64049 6.52002C1.67837 6.56887 1.72553 6.60976 1.77927 6.64031L3.69913 7.74876C3.8068 7.81092 3.93475 7.82777 4.05484 7.79559C4.17492 7.76341 4.27731 7.68485 4.33947 7.57718C4.40163 7.46951 4.41847 7.34156 4.38629 7.22147C4.35412 7.10139 4.27555 6.999 4.16788 6.93684Z" fill="white"/>
<path d="M22.2207 17.3597L20.3009 16.2512C20.1932 16.1891 20.0652 16.1722 19.9451 16.2044C19.8251 16.2366 19.7227 16.3152 19.6605 16.4228C19.5984 16.5305 19.5815 16.6585 19.6137 16.7785C19.6459 16.8986 19.7244 17.001 19.8321 17.0632L21.752 18.1716C21.8053 18.2028 21.8643 18.2232 21.9255 18.2316C21.9868 18.24 22.0491 18.2362 22.1088 18.2204C22.1686 18.2046 22.2247 18.1771 22.2738 18.1396C22.3229 18.102 22.3641 18.0551 22.395 18.0016C22.4259 17.948 22.4459 17.8889 22.4539 17.8276C22.4618 17.7663 22.4576 17.704 22.4414 17.6444C22.4252 17.5847 22.3974 17.5288 22.3595 17.48C22.3216 17.4311 22.2745 17.3903 22.2207 17.3597Z" fill="white"/>
<path d="M3.15436 12C3.15436 11.8757 3.10497 11.7565 3.01707 11.6685C2.92916 11.5806 2.80993 11.5312 2.68561 11.5312H0.46875C0.34443 11.5312 0.225201 11.5806 0.137294 11.6685C0.049386 11.7565 0 11.8757 0 12C0 12.1243 0.049386 12.2435 0.137294 12.3315C0.225201 12.4194 0.34443 12.4688 0.46875 12.4688H2.68561C2.80993 12.4688 2.92916 12.4194 3.01707 12.3315C3.10497 12.2435 3.15436 12.1243 3.15436 12Z" fill="white"/>
<path d="M23.5313 11.5312H21.3144C21.1901 11.5312 21.0708 11.5806 20.9829 11.6685C20.895 11.7565 20.8456 11.8757 20.8456 12C20.8456 12.1243 20.895 12.2435 20.9829 12.3315C21.0708 12.4194 21.1901 12.4688 21.3144 12.4688H23.5313C23.6556 12.4688 23.7748 12.4194 23.8627 12.3315C23.9506 12.2435 24 12.1243 24 12C24 11.8757 23.9506 11.7565 23.8627 11.6685C23.7748 11.5806 23.6556 11.5312 23.5313 11.5312Z" fill="white"/>
<path d="M3.69913 16.2512L1.77927 17.3597C1.72553 17.3903 1.67837 17.4311 1.64049 17.48C1.60262 17.5288 1.57478 17.5847 1.55858 17.6444C1.54238 17.704 1.53815 17.7663 1.54612 17.8276C1.55408 17.8889 1.5741 17.948 1.60501 18.0016C1.63592 18.0551 1.67711 18.102 1.72622 18.1396C1.77533 18.1771 1.83138 18.2046 1.89114 18.2204C1.95091 18.2362 2.01321 18.24 2.07446 18.2316C2.13571 18.2232 2.19469 18.2028 2.24802 18.1716L4.16788 17.0632C4.27555 17.001 4.35412 16.8986 4.38629 16.7785C4.41847 16.6585 4.40163 16.5305 4.33947 16.4228C4.27731 16.3152 4.17492 16.2366 4.05484 16.2044C3.93475 16.1722 3.8068 16.1891 3.69913 16.2512Z" fill="white"/>
<path d="M20.0672 7.81162C20.1493 7.81163 20.23 7.78994 20.3011 7.74876L22.221 6.64031C22.2747 6.60976 22.3219 6.56887 22.3597 6.52002C22.3976 6.47116 22.4254 6.41529 22.4416 6.35564C22.4578 6.29598 22.4621 6.2337 22.4541 6.1724C22.4461 6.1111 22.4261 6.05197 22.3952 5.99844C22.3643 5.9449 22.3231 5.89801 22.274 5.86046C22.2249 5.82291 22.1688 5.79544 22.1091 5.77964C22.0493 5.76384 21.987 5.76002 21.9258 5.76839C21.8645 5.77676 21.8055 5.79717 21.7522 5.82844L19.8323 6.93684C19.7429 6.98844 19.673 7.06812 19.6335 7.16352C19.594 7.25891 19.5871 7.36469 19.6139 7.46441C19.6406 7.56413 19.6996 7.65223 19.7815 7.71501C19.8635 7.7778 19.9639 7.81176 20.0672 7.81162Z" fill="white"/>
<path d="M7.57715 19.6605C7.46949 19.5984 7.34155 19.5815 7.22147 19.6137C7.10139 19.6459 6.999 19.7245 6.93684 19.8321L5.82844 21.752C5.79717 21.8053 5.77676 21.8643 5.76839 21.9255C5.76002 21.9868 5.76384 22.0491 5.77964 22.1089C5.79544 22.1686 5.82291 22.2247 5.86046 22.2738C5.89801 22.3229 5.9449 22.3641 5.99844 22.395C6.05197 22.4259 6.1111 22.4459 6.1724 22.4539C6.2337 22.4618 6.29598 22.4576 6.35564 22.4414C6.41529 22.4252 6.47116 22.3974 6.52002 22.3595C6.56887 22.3216 6.60976 22.2745 6.64031 22.2207L7.74876 20.3009C7.81092 20.1932 7.82775 20.0652 7.79557 19.9452C7.76339 19.8251 7.68482 19.7227 7.57715 19.6605Z" fill="white"/>
<path d="M16.4228 4.33945C16.5305 4.4016 16.6584 4.41845 16.7785 4.38627C16.8986 4.3541 17.001 4.27554 17.0632 4.16788L18.1716 2.24802C18.2028 2.19469 18.2232 2.13571 18.2316 2.07446C18.24 2.01321 18.2362 1.95091 18.2204 1.89114C18.2046 1.83138 18.1771 1.77533 18.1395 1.72622C18.102 1.67711 18.0551 1.63592 18.0016 1.60501C17.948 1.5741 17.8889 1.55408 17.8276 1.54612C17.7663 1.53815 17.704 1.54238 17.6444 1.55858C17.5847 1.57478 17.5288 1.60262 17.48 1.64049C17.4311 1.67837 17.3902 1.72553 17.3597 1.77927L16.2512 3.69913C16.1891 3.8068 16.1722 3.93475 16.2044 4.05483C16.2366 4.17491 16.3152 4.27729 16.4228 4.33945Z" fill="white"/>
</g>
<defs>
<clipPath id="clip0_89_55">
<rect width="24" height="24" fill="white"/>
</clipPath>
</defs>
</svg>
